  0
SECTION
  2
HEADER
  9
$INSUNITS
 70
     4
  0
ENDSEC
  0
SECTION
  2
TABLES
  0
TABLE
  2
LAYER
  0
LAYER
  2
A-WALL
 70
     0
 62
     7
  0
LAYER
  2
A-DOOR
 70
     0
 62
     1
  0
ENDTAB
  0
ENDSEC
  0
SECTION
  2
ENTITIES
  0
LINE
  8
A-WALL
 10
0.0
 20
0.0
 11
5000.0
 21
0.0
  0
LINE
  8
A-WALL
 10
5000.0
 20
0.0
 11
5000.0
 21
4000.0
  0
LINE
  8
A-WALL
 10
5000.0
 20
4000.0
 11
0.0
 21
4000.0
  0
LINE
  8
A-WALL
 10
0.0
 20
4000.0
 11
0.0
 21
0.0
  0
LINE
  8
A-DOOR
 10
1000.0
 20
0.0
 11
1900.0
 21
0.0
  0
ENDSEC
  0
EOF
